{
  "asset": {
    "version": "2.0",
    "generator": "THREE.GLTFExporter"
  },
  "scenes": [
    {
      "name": "AuxScene",
      "nodes": [
        10
      ]
    }
  ],
  "scene": 0,
  "nodes": [
    {
      "name": "object_0",
      "mesh": 0
    },
    {
      "name": "object_1",
      "mesh": 1
    },
    {
      "name": "object_2",
      "mesh": 2
    },
    {
      "name": "object_3",
      "mesh": 3
    },
    {
      "name": "object_4",
      "mesh": 4
    },
    {
      "name": "object_5",
      "mesh": 5
    },
    {
      "name": "object_6",
      "mesh": 6
    },
    {
      "name": "object_7",
      "mesh": 7
    },
    {
      "name": "object_8",
      "mesh": 8
    },
    {
      "name": "object_9",
      "mesh": 9
    },
    {
      "children": [
        0,
        1,
        2,
        3,
        4,
        5,
        6,
        7,
        8,
        9
      ]
    }
  ],
  "bufferViews": [
    {
      "buffer": 0,
      "byteOffset": 0,
      "byteLength": 227160,
      "target": 34962,
      "byteStride": 12
    },
    {
      "buffer": 0,
      "byteOffset": 227160,
      "byteLength": 227160,
      "target": 34962,
      "byteStride": 12
    },
    {
      "buffer": 0,
      "byteOffset": 454320,
      "byteLength": 151440,
      "target": 34962,
      "byteStride": 8
    },
    {
      "buffer": 0,
      "byteOffset": 605760,
      "byteLength": 207360,
      "target": 34962,
      "byteStride": 12
    },
    {
      "buffer": 0,
      "byteOffset": 813120,
      "byteLength": 207360,
      "target": 34962,
      "byteStride": 12
    },
    {
      "buffer": 0,
      "byteOffset": 1020480,
      "byteLength": 138240,
      "target": 34962,
      "byteStride": 8
    },
    {
      "buffer": 0,
      "byteOffset": 1158720,
      "byteLength": 10368,
      "target": 34962,
      "byteStride": 12
    },
    {
      "buffer": 0,
      "byteOffset": 1169088,
      "byteLength": 10368,
      "target": 34962,
      "byteStride": 12
    },
    {
      "buffer": 0,
      "byteOffset": 1179456,
      "byteLength": 6912,
      "target": 34962,
      "byteStride": 8
    },
    {
      "buffer": 0,
      "byteOffset": 1186368,
      "byteLength": 33120,
      "target": 34962,
      "byteStride": 12
    },
    {
      "buffer": 0,
      "byteOffset": 1219488,
      "byteLength": 33120,
      "target": 34962,
      "byteStride": 12
    },
    {
      "buffer": 0,
      "byteOffset": 1252608,
      "byteLength": 22080,
      "target": 34962,
      "byteStride": 8
    },
    {
      "buffer": 0,
      "byteOffset": 1274688,
      "byteLength": 256032,
      "target": 34962,
      "byteStride": 12
    },
    {
      "buffer": 0,
      "byteOffset": 1530720,
      "byteLength": 256032,
      "target": 34962,
      "byteStride": 12
    },
    {
      "buffer": 0,
      "byteOffset": 1786752,
      "byteLength": 170688,
      "target": 34962,
      "byteStride": 8
    },
    {
      "buffer": 0,
      "byteOffset": 1957440,
      "byteLength": 317520,
      "target": 34962,
      "byteStride": 12
    },
    {
      "buffer": 0,
      "byteOffset": 2274960,
      "byteLength": 317520,
      "target": 34962,
      "byteStride": 12
    },
    {
      "buffer": 0,
      "byteOffset": 2592480,
      "byteLength": 211680,
      "target": 34962,
      "byteStride": 8
    },
    {
      "buffer": 0,
      "byteOffset": 2804160,
      "byteLength": 11952,
      "target": 34962,
      "byteStride": 12
    },
    {
      "buffer": 0,
      "byteOffset": 2816112,
      "byteLength": 11952,
      "target": 34962,
      "byteStride": 12
    },
    {
      "buffer": 0,
      "byteOffset": 2828064,
      "byteLength": 7968,
      "target": 34962,
      "byteStride": 8
    },
    {
      "buffer": 0,
      "byteOffset": 2836032,
      "byteLength": 6048,
      "target": 34962,
      "byteStride": 12
    },
    {
      "buffer": 0,
      "byteOffset": 2842080,
      "byteLength": 6048,
      "target": 34962,
      "byteStride": 12
    },
    {
      "buffer": 0,
      "byteOffset": 2848128,
      "byteLength": 4032,
      "target": 34962,
      "byteStride": 8
    },
    {
      "buffer": 0,
      "byteOffset": 2852160,
      "byteLength": 1728,
      "target": 34962,
      "byteStride": 12
    },
    {
      "buffer": 0,
      "byteOffset": 2853888,
      "byteLength": 1728,
      "target": 34962,
      "byteStride": 12
    },
    {
      "buffer": 0,
      "byteOffset": 2855616,
      "byteLength": 1152,
      "target": 34962,
      "byteStride": 8
    },
    {
      "buffer": 0,
      "byteOffset": 2856768,
      "byteLength": 12960,
      "target": 34962,
      "byteStride": 12
    },
    {
      "buffer": 0,
      "byteOffset": 2869728,
      "byteLength": 12960,
      "target": 34962,
      "byteStride": 12
    },
    {
      "buffer": 0,
      "byteOffset": 2882688,
      "byteLength": 8640,
      "target": 34962,
      "byteStride": 8
    }
  ],
  "buffers": [
    {
      "byteLength": 2891328,
      "uri": "data:application/octet-stream;base64,"
    }
  ],
  "accessors": [
    {
      "bufferView": 0,
      "componentType": 5126,
      "count": 18930,
      "max": [
        0.11615179479122162,
        2.1385579109191895,
        2.682999849319458
      ],
      "min": [
        -0.11615200340747833,
        2.052639961242676,
        2.5539801120758057
      ],
      "type": "VEC3"
    },
    {
      "bufferView": 1,
      "componentType": 5126,
      "count": 18930,
      "max": [
        0.9999690055847168,
        0.9996269941329956,
        0.9972429871559143
      ],
      "min": [
        -0.9999690055847168,
        -0.9958710074424744,
        -0.8033300042152405
      ],
      "type": "VEC3"
    },
    {
      "bufferView": 2,
      "componentType": 5126,
      "count": 18930,
      "max": [
        0.5323219895362854,
        0.54025799036026
      ],
      "min": [
        0.0007110000005923212,
        0.004393999930471182
      ],
      "type": "VEC2"
    },
    {
      "bufferView": 3,
      "componentType": 5126,
      "count": 17280,
      "max": [
        0.13011391460895538,
        2.2509360313415527,
        2.843271017074585
      ],
      "min": [
        -0.13011300563812256,
        2.1435000896453857,
        2.7201600074768066
      ],
      "type": "VEC3"
    },
    {
      "bufferView": 4,
      "componentType": 5126,
      "count": 17280,
      "max": [
        0.9998070001602173,
        0.7984259724617004,
        0.9286140203475952
      ],
      "min": [
        -0.9998070001602173,
        -0.9988549947738647,
        -0.9997609853744507
      ],
      "type": "VEC3"
    },
    {
      "bufferView": 5,
      "componentType": 5126,
      "count": 17280,
      "max": [
        0.9804159998893738,
        0.5725859999656677
      ],
      "min": [
        0.004466000013053417,
        0.013024999760091305
      ],
      "type": "VEC2"
    },
    {
      "bufferView": 6,
      "componentType": 5126,
      "count": 864,
      "max": [
        0.10126598179340363,
        2.458127021789551,
        2.6069064140319824
      ],
      "min": [
        -0.10126599669456482,
        2.110729932785034,
        2.4075798988342285
      ],
      "type": "VEC3"
    },
    {
      "bufferView": 7,
      "componentType": 5126,
      "count": 864,
      "max": [
        0.9914770126342773,
        0.4521389901638031,
        0.9996560215950012
      ],
      "min": [
        -0.9917280077934265,
        -0.6688479781150818,
        -0.9115200042724609
      ],
      "type": "VEC3"
    },
    {
      "bufferView": 8,
      "componentType": 5126,
      "count": 864,
      "max": [
        0.9922680258750916,
        0.4599570035934448
      ],
      "min": [
        0.4661549925804138,
        0.03162899985909462
      ],
      "type": "VEC2"
    },
    {
      "bufferView": 9,
      "componentType": 5126,
      "count": 2760,
      "max": [
        0.20298737287521362,
        2.703673839569092,
        2.687190055847168
      ],
      "min": [
        -0.20298799872398376,
        2.6051199436187744,
        2.61968994140625
      ],
      "type": "VEC3"
    },
    {
      "bufferView": 10,
      "componentType": 5126,
      "count": 2760,
      "max": [
        0.9997410178184509,
        0.9984210133552551,
        0.9780870079994202
      ],
      "min": [
        -0.9997410178184509,
        -0.9984210133552551,
        -0.46814200282096863
      ],
      "type": "VEC3"
    },
    {
      "bufferView": 11,
      "componentType": 5126,
      "count": 2760,
      "max": [
        0.9767580032348633,
        0.9953539967536926
      ],
      "min": [
        0.4538390040397644,
        0.47243499755859375
      ],
      "type": "VEC2"
    },
    {
      "bufferView": 12,
      "componentType": 5126,
      "count": 21336,
      "max": [
        0.5864335298538208,
        3.117307186126709,
        2.9854166507720947
      ],
      "min": [
        -0.586434006690979,
        0.00564213003963232,
        -3.103610038757324
      ],
      "type": "VEC3"
    },
    {
      "bufferView": 13,
      "componentType": 5126,
      "count": 21336,
      "max": [
        0.9999690055847168,
        0.9999790191650391,
        0.9996560215950012
      ],
      "min": [
        -0.999567985534668,
        -0.9999790191650391,
        -0.9996560215950012
      ],
      "type": "VEC3"
    },
    {
      "bufferView": 14,
      "componentType": 5126,
      "count": 21336,
      "max": [
        0.9963290095329285,
        0.9954349994659424
      ],
      "min": [
        0.0045460001565515995,
        0.006010999903082848
      ],
      "type": "VEC2"
    },
    {
      "bufferView": 15,
      "componentType": 5126,
      "count": 26460,
      "max": [
        0.5887858271598816,
        0.28217336535453796,
        1.5376005172729492
      ],
      "min": [
        -0.5887979865074158,
        0.09117189794778824,
        -1.3878899812698364
      ],
      "type": "VEC3"
    },
    {
      "bufferView": 16,
      "componentType": 5126,
      "count": 26460,
      "max": [
        0.9999499917030334,
        0.9999690055847168,
        0.9957929849624634
      ],
      "min": [
        -0.9999979734420776,
        -0.9997410178184509,
        -0.9996560215950012
      ],
      "type": "VEC3"
    },
    {
      "bufferView": 17,
      "componentType": 5126,
      "count": 26460,
      "max": [
        0.49657100439071655,
        0.9866750240325928
      ],
      "min": [
        0.014666000381112099,
        0.5137420296669006
      ],
      "type": "VEC2"
    },
    {
      "bufferView": 18,
      "componentType": 5126,
      "count": 996,
      "max": [
        0.5858597755432129,
        2.972782611846924,
        2.8952462673187256
      ],
      "min": [
        -0.585860013961792,
        1.4119399785995483,
        1.3386199474334717
      ],
      "type": "VEC3"
    },
    {
      "bufferView": 19,
      "componentType": 5126,
      "count": 996,
      "max": [
        0.9953359961509705,
        0.5031669735908508,
        0.9919829964637756
      ],
      "min": [
        -0.9953359961509705,
        -0.8983740210533142,
        -0.8453099727630615
      ],
      "type": "VEC3"
    },
    {
      "bufferView": 20,
      "componentType": 5126,
      "count": 996,
      "max": [
        0.9443699717521667,
        0.9739980101585388
      ],
      "min": [
        0.0615679994225502,
        -0.02037299983203411
      ],
      "type": "VEC2"
    },
    {
      "bufferView": 21,
      "componentType": 5126,
      "count": 504,
      "max": [
        0.05247503146529198,
        0.9966654181480408,
        -2.9335386753082275
      ],
      "min": [
        -0.05247509852051735,
        0.7824379801750183,
        -3.1284101009368896
      ],
      "type": "VEC3"
    },
    {
      "bufferView": 22,
      "componentType": 5126,
      "count": 504,
      "max": [
        0.9968630075454712,
        0.9340190291404724,
        0.9522640109062195
      ],
      "min": [
        -0.9995499849319458,
        -0.950232982635498,
        -0.943934977054596
      ],
      "type": "VEC3"
    },
    {
      "bufferView": 23,
      "componentType": 5126,
      "count": 504,
      "max": [
        0.9229080080986023,
        0.6887350082397461
      ],
      "min": [
        0.06898000091314316,
        0.31030699610710144
      ],
      "type": "VEC2"
    },
    {
      "bufferView": 24,
      "componentType": 5126,
      "count": 144,
      "max": [
        0.3238239288330078,
        3.083451986312866,
        2.4352920055389404
      ],
      "min": [
        -0.3238239884376526,
        2.836790084838867,
        2.3326399326324463
      ],
      "type": "VEC3"
    },
    {
      "bufferView": 25,
      "componentType": 5126,
      "count": 144,
      "max": [
        0.3503760099411011,
        -0.08103500306606293,
        0.9876539707183838
      ],
      "min": [
        -0.35203200578689575,
        -0.4093480110168457,
        0.8763909935951233
      ],
      "type": "VEC3"
    },
    {
      "bufferView": 26,
      "componentType": 5126,
      "count": 144,
      "max": [
        0.9424279928207397,
        0.7329949736595154
      ],
      "min": [
        0.726065993309021,
        0.18793700635433197
      ],
      "type": "VEC2"
    },
    {
      "bufferView": 27,
      "componentType": 5126,
      "count": 1080,
      "max": [
        0.19002880156040192,
        2.6897940635681152,
        2.6938228607177734
      ],
      "min": [
        -0.19514699280261993,
        2.6257100105285645,
        2.671639919281006
      ],
      "type": "VEC3"
    },
    {
      "bufferView": 28,
      "componentType": 5126,
      "count": 1080,
      "max": [
        0.8062809705734253,
        0.7207310199737549,
        0.9986259937286377
      ],
      "min": [
        -0.8066229820251465,
        -0.5721030235290527,
        0.5760589838027954
      ],
      "type": "VEC3"
    },
    {
      "bufferView": 29,
      "componentType": 5126,
      "count": 1080,
      "max": [
        0.9280850291252136,
        0.22879500687122345
      ],
      "min": [
        0.9280850291252136,
        0.22879500687122345
      ],
      "type": "VEC2"
    }
  ],
  "materials": [
    {
      "pbrMetallicRoughness": {
        "metallicFactor": 0.5,
        "roughnessFactor": 0.5
      },
      "name": "object_0"
    },
    {
      "pbrMetallicRoughness": {
        "metallicFactor": 0.5,
        "roughnessFactor": 0.5
      },
      "name": "object_1"
    },
    {
      "pbrMetallicRoughness": {
        "metallicFactor": 0.5,
        "roughnessFactor": 0.5
      },
      "name": "object_2"
    },
    {
      "pbrMetallicRoughness": {
        "metallicFactor": 0.5,
        "roughnessFactor": 0.5
      },
      "name": "object_3"
    },
    {
      "pbrMetallicRoughness": {
        "metallicFactor": 0.5,
        "roughnessFactor": 0.5
      },
      "name": "object_4"
    },
    {
      "pbrMetallicRoughness": {
        "metallicFactor": 0.5,
        "roughnessFactor": 0.5
      },
      "name": "object_5"
    },
    {
      "pbrMetallicRoughness": {
        "metallicFactor": 0.5,
        "roughnessFactor": 0.5
      },
      "name": "object_6"
    },
    {
      "pbrMetallicRoughness": {
        "metallicFactor": 0.5,
        "roughnessFactor": 0.5
      },
      "name": "object_7"
    },
    {
      "pbrMetallicRoughness": {
        "metallicFactor": 0.5,
        "roughnessFactor": 0.5
      },
      "name": "object_8"
    },
    {
      "pbrMetallicRoughness": {
        "metallicFactor": 0.5,
        "roughnessFactor": 0.5
      },
      "name": "object_9"
    }
  ],
  "meshes": [
    {
      "primitives": [
        {
          "mode": 4,
          "attributes": {
            "POSITION": 0,
            "NORMAL": 1,
            "TEXCOORD_0": 2
          },
          "material": 0
        }
      ]
    },
    {
      "primitives": [
        {
          "mode": 4,
          "attributes": {
            "POSITION": 3,
            "NORMAL": 4,
            "TEXCOORD_0": 5
          },
          "material": 1
        }
      ]
    },
    {
      "primitives": [
        {
          "mode": 4,
          "attributes": {
            "POSITION": 6,
            "NORMAL": 7,
            "TEXCOORD_0": 8
          },
          "material": 2
        }
      ]
    },
    {
      "primitives": [
        {
          "mode": 4,
          "attributes": {
            "POSITION": 9,
            "NORMAL": 10,
            "TEXCOORD_0": 11
          },
          "material": 3
        }
      ]
    },
    {
      "primitives": [
        {
          "mode": 4,
          "attributes": {
            "POSITION": 12,
            "NORMAL": 13,
            "TEXCOORD_0": 14
          },
          "material": 4
        }
      ]
    },
    {
      "primitives": [
        {
          "mode": 4,
          "attributes": {
            "POSITION": 15,
            "NORMAL": 16,
            "TEXCOORD_0": 17
          },
          "material": 5
        }
      ]
    },
    {
      "primitives": [
        {
          "mode": 4,
          "attributes": {
            "POSITION": 18,
            "NORMAL": 19,
            "TEXCOORD_0": 20
          },
          "material": 6
        }
      ]
    },
    {
      "primitives": [
        {
          "mode": 4,
          "attributes": {
            "POSITION": 21,
            "NORMAL": 22,
            "TEXCOORD_0": 23
          },
          "material": 7
        }
      ]
    },
    {
      "primitives": [
        {
          "mode": 4,
          "attributes": {
            "POSITION": 24,
            "NORMAL": 25,
            "TEXCOORD_0": 26
          },
          "material": 8
        }
      ]
    },
    {
      "primitives": [
        {
          "mode": 4,
          "attributes": {
            "POSITION": 27,
            "NORMAL": 28,
            "TEXCOORD_0": 29
          },
          "material": 9
        }
      ]
    }
  ]
}